<svg width="37" height="37" viewBox="0 0 37 37" fill="none" xmlns="http://www.w3.org/2000/svg">
<g clip-path="url(#clip0_161_759)">
<path d="M29.2917 21.5832V9.24984C29.2917 7.554 27.9042 6.1665 26.2083 6.1665H4.625C2.92916 6.1665 1.54166 7.554 1.54166 9.24984V21.5832C1.54166 23.279 2.92916 24.6665 4.625 24.6665H26.2083C27.9042 24.6665 29.2917 23.279 29.2917 21.5832ZM26.2083 21.5832H4.625V9.24984H26.2083V21.5832ZM15.4167 10.7915C12.8575 10.7915 10.7917 12.8573 10.7917 15.4165C10.7917 17.9757 12.8575 20.0415 15.4167 20.0415C17.9758 20.0415 20.0417 17.9757 20.0417 15.4165C20.0417 12.8573 17.9758 10.7915 15.4167 10.7915ZM35.4583 10.7915V27.7498C35.4583 29.4457 34.0708 30.8332 32.375 30.8332H6.16666C6.16666 29.2915 6.16666 29.4457 6.16666 27.7498H32.375V10.7915C34.0708 10.7915 33.9167 10.7915 35.4583 10.7915Z" fill="#FED600"/>
</g>
<defs>
<clipPath id="clip0_161_759">
<rect width="37" height="37" fill="white"/>
</clipPath>
</defs>
</svg>
