<svg width="20" height="20" viewBox="0 0 20 20" fill="none" xmlns="http://www.w3.org/2000/svg">
<g clip-path="url(#clip0_161_685)">
<path d="M10.725 12.5582L8.60834 10.4665L8.63334 10.4415C10.0833 8.82484 11.1167 6.9665 11.725 4.99984H14.1667V3.33317H8.33334V1.6665H6.66668V3.33317H0.833344V4.9915H10.1417C9.58334 6.59984 8.70001 8.12484 7.50001 9.45817C6.72501 8.59984 6.08334 7.65817 5.57501 6.6665H3.90834C4.51668 8.02484 5.35001 9.30817 6.39168 10.4665L2.15001 14.6498L3.33334 15.8332L7.50001 11.6665L10.0917 14.2582L10.725 12.5582ZM15.4167 8.33317H13.75L10 18.3332H11.6667L12.6 15.8332H16.5583L17.5 18.3332H19.1667L15.4167 8.33317ZM13.2333 14.1665L14.5833 10.5582L15.9333 14.1665H13.2333Z" fill="#1D242E"/>
</g>
<defs>
<clipPath id="clip0_161_685">
<rect width="20" height="20" fill="white"/>
</clipPath>
</defs>
</svg>
