<svg width="37" height="37" viewBox="0 0 37 37" fill="none" xmlns="http://www.w3.org/2000/svg">
<g clip-path="url(#clip0_161_785)">
<path d="M30.8333 9.25016H24.6667V6.16683C24.6667 4.471 23.2792 3.0835 21.5833 3.0835H15.4167C13.7208 3.0835 12.3333 4.471 12.3333 6.16683V9.25016H6.16668C4.47084 9.25016 3.08334 10.6377 3.08334 12.3335V30.8335C3.08334 32.5293 4.47084 33.9168 6.16668 33.9168H30.8333C32.5292 33.9168 33.9167 32.5293 33.9167 30.8335V12.3335C33.9167 10.6377 32.5292 9.25016 30.8333 9.25016ZM15.4167 6.16683H21.5833V9.25016H15.4167V6.16683ZM30.8333 30.8335H6.16668V12.3335H30.8333V30.8335Z" fill="#03A9F5"/>
<path d="M20.0417 15.417H16.9583V20.042H12.3333V23.1253H16.9583V27.7503H20.0417V23.1253H24.6667V20.042H20.0417V15.417Z" fill="#03A9F5"/>
</g>
<defs>
<clipPath id="clip0_161_785">
<rect width="37" height="37" fill="white"/>
</clipPath>
</defs>
</svg>
