<svg width="22" height="22" viewBox="0 0 22 22" fill="none" xmlns="http://www.w3.org/2000/svg">
<path d="M5.71873 16.2812C4.23699 14.782 3.14146 12.9456 2.52576 10.9294C1.91006 8.9133 1.7931 6.77827 2.18453 4.70713C2.25402 4.29406 2.43462 3.90769 2.70686 3.58943C2.97911 3.27102 3.33274 3.03268 3.7299 2.89973L6.29157 2.03967L6.29174 2.03984C6.57943 1.94232 6.89429 1.96364 7.16637 2.09909C7.43845 2.23454 7.64526 2.47305 7.7409 2.76141L8.76764 5.86521C8.83428 6.0678 8.84334 6.28483 8.79399 6.4923C8.74448 6.69976 8.63823 6.88926 8.48734 7.03998L6.50442 9.21007C6.50442 9.21007 5.73184 11.4136 8.15889 13.8412C10.5858 16.2686 12.7896 15.4959 12.7896 15.4959L14.9599 13.5126C15.1106 13.3616 15.3003 13.2555 15.5077 13.206C15.7152 13.1565 15.9322 13.1657 16.1348 13.2323L19.2385 14.2594C19.527 14.355 19.7653 14.5618 19.9008 14.8339C20.0362 15.106 20.0576 15.4208 19.96 15.7087L19.1001 18.27C18.9672 18.6671 18.7289 19.0208 18.4106 19.2929C18.0922 19.5651 17.706 19.7457 17.2929 19.8152C15.2217 20.2068 13.0865 20.0898 11.0706 19.4741C9.05461 18.8587 7.21804 17.763 5.71886 16.2812L5.71873 16.2812ZM19.5963 2.404C19.4695 2.27711 19.2974 2.20578 19.118 2.20578C18.9385 2.20578 18.7665 2.27711 18.6396 2.404L16.4121 4.63185L14.1843 2.404C14.0115 2.24304 13.7675 2.18379 13.5402 2.24757C13.313 2.31135 13.1354 2.48894 13.0716 2.71619C13.008 2.94329 13.0673 3.18734 13.2281 3.36003L15.4556 5.58805L13.2281 7.81606C13.0938 7.94111 13.0161 8.1155 13.0129 8.29895C13.0097 8.48257 13.0812 8.65948 13.2109 8.78922C13.3407 8.91913 13.5178 8.99047 13.7012 8.98728C13.8848 8.98409 14.0591 8.90638 14.1843 8.7721L16.4121 6.5446L18.6401 8.77262C18.8125 8.9361 19.0579 8.9972 19.2867 8.93375C19.5156 8.87014 19.6944 8.69138 19.7577 8.46243C19.8211 8.23348 19.7598 7.98809 19.5964 7.81605L17.3689 5.58803L19.5969 3.36002H19.5967C19.7234 3.23312 19.7944 3.06108 19.7944 2.88182C19.7943 2.70256 19.7231 2.53068 19.5964 2.40396L19.5963 2.404Z" fill="#283342"/>
</svg>
